<svg xmlns="http://www.w3.org/2000/svg" xmlns:xlink="http://www.w3.org/1999/xlink" width="58.443" height="24.812" viewBox="0 0 58.443 24.812"><defs><clipPath id="a"><path d="M18.974,47.4h1.751a1.447,1.447,0,0,1,.886.208.779.779,0,0,1,.261.647,2.868,2.868,0,0,1-.063.563,1.876,1.876,0,0,1-.542,1.042,1.842,1.842,0,0,1-1.251.355H18.369Zm-3.753-3.481L12.386,57.34h4.482l.771-3.669h.646a.732.732,0,0,1,.5.136.8.8,0,0,1,.209.427l.729,3.106h4.67l-.813-3.585a2.47,2.47,0,0,0-.177-.511,1.266,1.266,0,0,0-.3-.406A6.088,6.088,0,0,0,25.249,51.2a5.311,5.311,0,0,0,1.126-2.387,6.078,6.078,0,0,0,.125-1.189,3.579,3.579,0,0,0-1.053-2.689,4.092,4.092,0,0,0-2.971-1.022Zm13.741,0L26.128,57.34H36.573l.688-3.315H31.3l.375-1.689h5.191l.709-3.4H32.382l.375-1.71h5.962l.688-3.314Zm25.1,0-2.669,6.15-.48-6.15H47.267l-.459,2.147-1.96,3.982.021-6.129H40.491l.292,13.426h4.086l3.252-6.108.521,6.108H52.5l.968-2.187.133-.3,4.841-10.938ZM3.085,45.478a8.811,8.811,0,0,0-2.9,5.191A8.219,8.219,0,0,0,0,52.357,4.821,4.821,0,0,0,.813,55.2a5,5,0,0,0,2.262,1.751,8.885,8.885,0,0,0,3.387.594,13.7,13.7,0,0,0,2.3-.177,13.078,13.078,0,0,0,2.012-.511l.834-3.919a11.035,11.035,0,0,1-2.012.615,10.2,10.2,0,0,1-2.011.2,4.567,4.567,0,0,1-2.284-.428,1.605,1.605,0,0,1-.7-1.491,3.8,3.8,0,0,1,.042-.542c.027-.195.062-.4.1-.626a3.721,3.721,0,0,1,1.4-2.449,4.715,4.715,0,0,1,2.731-.72,8.755,8.755,0,0,1,2.012.2,7.186,7.186,0,0,1,1.658.636l.834-3.9a8.962,8.962,0,0,0-1.8-.542,11.629,11.629,0,0,0-2.2-.187q-4.128,0-6.3,1.772" transform="translate(0 -43.706)" fill="#fff"/></clipPath><clipPath id="b"><rect width="58.443" height="24.812" fill="#fff"/></clipPath></defs><g transform="translate(0 0)"><path d="M156.523,2.551h2.364v.776h-2.364Zm3.862,0h2.369v.776h-2.369Zm3.862,0h2.369v.776h-2.369ZM149.574.5l-.432,2.05h2.251l-1.351,6.362h2.814l1.179-5.586h-1.38V2.551h2.37v.776l-1.232,5.586h14.477l1.25-5.586H168.1V2.551H169.7L170.152.5Z" transform="translate(-111.709 -0.375)" fill="#fff"/><g transform="translate(0 10.97)"><g transform="translate(0)" clip-path="url(#a)"><rect width="58.441" height="13.843" transform="translate(0 0)" fill="#fff"/></g></g><g transform="translate(0 0)"><g transform="translate(0 0)" clip-path="url(#b)"><path d="M3.24.508,2.805,2.557H5.056L3.707,8.918H6.521l1.338-6.36h2.261L10.556.508Z" transform="translate(-2.101 -0.381)" fill="#fff"/><path d="M31.4.508,29.625,8.918h2.814L34.212.508Z" transform="translate(-22.189 -0.381)" fill="#fff"/><path d="M49.986,4.365a2.374,2.374,0,0,1,.881-1.54,2.96,2.96,0,0,1,1.709-.446,5.286,5.286,0,0,1,1.253.128,4.161,4.161,0,0,1,1.04.393L55.39.457a6.076,6.076,0,0,0-1.125-.34A7.618,7.618,0,0,0,52.885,0a6.069,6.069,0,0,0-3.939,1.115A5.5,5.5,0,0,0,47.13,4.365a5.4,5.4,0,0,0-.117,1.051,3,3,0,0,0,.51,1.784,3.055,3.055,0,0,0,1.412,1.094,5.452,5.452,0,0,0,2.124.383A8.554,8.554,0,0,0,52.5,8.559a8.846,8.846,0,0,0,1.264-.319l.52-2.453a7.385,7.385,0,0,1-1.263.382,6.223,6.223,0,0,1-1.263.128,2.922,2.922,0,0,1-1.423-.266A1,1,0,0,1,49.9,5.1a1.876,1.876,0,0,1,.021-.34c.021-.127.042-.255.064-.393" transform="translate(-35.213 -0.001)" fill="#fff"/><path d="M87.41.508H84.246L81.485,3.173,82.048.508h-2.8L77.471,8.918h2.8l.478-2.3.913-.85L82.9,8.918H85.87l-2.1-4.937Z" transform="translate(-58.027 -0.381)" fill="#fff"/><path d="M122,2.59l.435-2.081h-6.541l-1.784,8.409h6.541l.435-2.07h-3.737l.234-1.062h3.259l.436-2.124h-3.249l.234-1.072Z" transform="translate(-85.467 -0.381)" fill="#fff"/></g></g></g></svg>