<svg xmlns="http://www.w3.org/2000/svg" width="17.998" height="14.992" viewBox="0 0 17.998 14.992"><g transform="translate(-1270 -142)"><path d="M16.6,24.09H4.925a.5.5,0,0,1-.491-.407l-1.78-9.461a.5.5,0,0,1,.49-.591h15.24a.5.5,0,0,1,.49.591L17.1,23.683a.5.5,0,0,1-.491.407m-11.266-1H16.191l1.592-8.463H3.747Z" transform="translate(1268.234 132.903)" fill="#161616"/><path d="M33.517,26.655a.5.5,0,0,1-.086-.007.5.5,0,0,1-.406-.577l.756-4.364a.5.5,0,1,1,.983.17l-.756,4.364a.5.5,0,0,1-.491.414" transform="translate(1247.964 127.789)" fill="#161616"/><path d="M26.057,26.656a.5.5,0,0,1-.5-.5V21.793a.5.5,0,0,1,1,0v4.364a.5.5,0,0,1-.5.5" transform="translate(1252.942 127.788)" fill="#161616"/><path d="M17.08,26.656a.5.5,0,0,1-.491-.414l-.756-4.364a.5.5,0,1,1,.983-.17l.756,4.364a.5.5,0,0,1-.492.584" transform="translate(1259.438 127.788)" fill="#161616"/><path d="M17.5,14.629H.5a.5.5,0,0,1,0-1h17a.5.5,0,0,1,0,1" transform="translate(1270 132.903)" fill="#161616"/><path d="M12.051,5.531a.494.494,0,0,1-.191-.039.5.5,0,0,1-.269-.652L13.478.307A.5.5,0,0,1,14.4.691L12.512,5.224a.5.5,0,0,1-.461.307" transform="translate(1262.29 142)" fill="#161616"/><path d="M36.275,5.531a.5.5,0,0,1-.461-.307L33.927.691a.5.5,0,0,1,.921-.383L36.735,4.84a.5.5,0,0,1-.269.652.494.494,0,0,1-.191.039" transform="translate(1247.382 142)" fill="#161616"/></g></svg>