<svg xmlns="http://www.w3.org/2000/svg" xmlns:xlink="http://www.w3.org/1999/xlink" width="16" height="15" viewBox="0 0 16 15"><defs><clipPath id="b"><rect width="16" height="15"/></clipPath></defs><g id="a" clip-path="url(#b)"><g transform="translate(-1179.801 -78.992)"><path d="M16.272,6.837a3.418,3.418,0,1,1,3.418-3.418,3.422,3.422,0,0,1-3.418,3.418m0-5.814a2.4,2.4,0,1,0,2.4,2.4,2.4,2.4,0,0,0-2.4-2.4" transform="translate(1171.529 79)" fill="#161616"/><path d="M.512,30.346a.476.476,0,0,1-.069,0A.511.511,0,0,1,0,29.766a7.933,7.933,0,0,1,15.593,0,.511.511,0,0,1-1.013.138A6.97,6.97,0,0,0,7.8,24.321,6.973,6.973,0,0,0,1.018,29.9a.511.511,0,0,1-.506.443" transform="translate(1180 63.647)" fill="#161616"/></g></g></svg>