<svg xmlns="http://www.w3.org/2000/svg" width="17.667" height="15.105" viewBox="0 0 17.667 15.105"><g transform="translate(-1270 -142)" opacity="0.6"><path d="M16.309,24.169H4.877a.493.493,0,0,1-.48-.41L2.655,14.227a.514.514,0,0,1,.1-.414.483.483,0,0,1,.376-.182H18.052a.483.483,0,0,1,.376.182.514.514,0,0,1,.1.414l-1.742,9.532a.493.493,0,0,1-.48.41M5.282,23.163H15.9l1.559-8.527H3.723Z" transform="translate(1268.24 132.937)" fill="#161616"/><path d="M33.521,26.7a.508.508,0,0,1-.086-.007.5.5,0,0,1-.409-.581l.762-4.4a.5.5,0,1,1,.99.171l-.762,4.4a.5.5,0,0,1-.495.417" transform="translate(1247.731 127.842)" fill="#161616"/><path d="M26.061,26.7a.5.5,0,0,1-.5-.5V21.8a.5.5,0,1,1,1.005,0v4.4a.5.5,0,0,1-.5.5" transform="translate(1252.773 127.842)" fill="#161616"/><path d="M17.089,26.7a.5.5,0,0,1-.495-.417l-.762-4.4a.5.5,0,1,1,.99-.171l.762,4.4a.5.5,0,0,1-.5.588" transform="translate(1259.326 127.841)" fill="#161616"/><path d="M17.177,14.636H.49a.5.5,0,0,1,0-1.005H17.177a.5.5,0,0,1,0,1.005" transform="translate(1270 132.937)" fill="#161616"/><path d="M12.055,5.573a.5.5,0,0,1-.193-.039.5.5,0,0,1-.271-.657l1.9-4.567A.5.5,0,0,1,14.42.7l-1.9,4.567a.5.5,0,0,1-.464.31" transform="translate(1262.2 142)" fill="#161616"/><path d="M36.293,5.573a.5.5,0,0,1-.464-.31L33.927.7a.5.5,0,0,1,.928-.386l1.9,4.567a.5.5,0,0,1-.271.657.5.5,0,0,1-.193.039" transform="translate(1247.119 142)" fill="#161616"/></g></svg>