<svg xmlns="http://www.w3.org/2000/svg" width="12.962" height="12.992" viewBox="0 0 12.962 12.992"><g transform="translate(-1404 -39.999)"><path d="M5.65,11.3A5.651,5.651,0,1,1,11.3,5.651,5.657,5.657,0,0,1,5.65,11.3M5.65.941a4.71,4.71,0,1,0,4.71,4.71A4.715,4.715,0,0,0,5.65.941" transform="translate(1404 39.999)" fill="#161616"/><path d="M31.837,32.372a.467.467,0,0,1-.333-.139l-3.187-3.2a.47.47,0,1,1,.666-.664l3.186,3.2a.47.47,0,0,1-.333.8" transform="translate(1384.655 20.619)" fill="#161616"/></g></svg>