<svg xmlns="http://www.w3.org/2000/svg" xmlns:xlink="http://www.w3.org/1999/xlink" width="123.991" height="52.641" viewBox="0 0 123.991 52.641">
  <defs>
    <clipPath id="clip-path">
      <rect id="사각형_18" data-name="사각형 18" width="123.991" height="52.641" fill="none"/>
    </clipPath>
  </defs>
  <g id="그룹_8" data-name="그룹 8" transform="translate(0 0)" opacity="0.2">
    <path id="패스_14" data-name="패스 14" d="M164.8,4.849h5.014V6.5H164.8Zm8.193,0h5.027V6.5h-5.027Zm8.194,0h5.027V6.5h-5.027ZM150.059.5l-.917,4.348h4.775l-2.865,13.5h5.969l2.5-11.851h-2.928V4.849h5.027V6.5l-2.615,11.851H189.72L192.372,6.5h-3V4.849h3.38L193.716.5Z" transform="translate(-69.725 -0.234)" fill="#272727"/>
    <g id="그룹_7" data-name="그룹 7" transform="translate(0 0)">
      <g id="그룹_6" data-name="그룹 6" clip-path="url(#clip-path)">
        <path id="패스_15" data-name="패스 15" d="M13.711,73.074a18.853,18.853,0,0,1-7.186-1.26,10.608,10.608,0,0,1-4.8-3.716A10.232,10.232,0,0,1,0,62.06a17.474,17.474,0,0,1,.4-3.583q1.548-7.253,6.148-11.012T19.9,43.706a24.618,24.618,0,0,1,4.666.4,18.994,18.994,0,0,1,3.826,1.149l-1.769,8.272a15.263,15.263,0,0,0-3.517-1.35,18.6,18.6,0,0,0-4.267-.42,10.008,10.008,0,0,0-5.795,1.527,7.9,7.9,0,0,0-2.963,5.2q-.133.708-.221,1.328a8.05,8.05,0,0,0-.089,1.149,3.4,3.4,0,0,0,1.481,3.162,9.686,9.686,0,0,0,4.844.907,21.682,21.682,0,0,0,4.268-.42A23.464,23.464,0,0,0,24.635,63.3l-1.768,8.315A27.746,27.746,0,0,1,18.6,72.7a29,29,0,0,1-4.888.376m12.568-.442,6.014-28.484H47.685a8.679,8.679,0,0,1,6.3,2.167,7.593,7.593,0,0,1,2.234,5.705,12.859,12.859,0,0,1-.266,2.522,11.272,11.272,0,0,1-2.388,5.064,12.925,12.925,0,0,1-4.556,3.471,2.7,2.7,0,0,1,.641.862,5.285,5.285,0,0,1,.376,1.085l1.725,7.607H41.847L40.3,66.041a1.7,1.7,0,0,0-.442-.906,1.555,1.555,0,0,0-1.063-.287H37.424l-1.636,7.784ZM38.972,57.505h3.494a3.913,3.913,0,0,0,2.654-.752,3.976,3.976,0,0,0,1.149-2.211,6.091,6.091,0,0,0,.133-1.195,1.653,1.653,0,0,0-.553-1.372,3.071,3.071,0,0,0-1.88-.442H40.254Zm16.46,15.126,6.014-28.484H83.606l-1.46,7.032H69.5l-.8,3.627H79.714l-1.5,7.209H67.2L66.4,65.6h12.65l-1.46,7.033Zm31.092,0L85.9,44.148h9.289l-.045,13L99.306,48.7l.973-4.556h7.74L109.037,57.2,114.7,44.148h9.288L111.381,72.632H103.2l-1.105-12.959-6.9,12.959Z" transform="translate(0 -20.433)" fill="#272727"/>
        <path id="패스_16" data-name="패스 16" d="M3.728.508,2.8,4.855H7.58L4.719,18.349h5.97L13.528,4.855h4.8L19.249.508Z" transform="translate(-1.311 -0.238)" fill="#272727"/>
        <path id="패스_17" data-name="패스 17" d="M33.387.508,29.625,18.349h5.97L39.356.508Z" transform="translate(-13.85 -0.238)" fill="#272727"/>
        <path id="패스_18" data-name="패스 18" d="M53.32,9.259a5.036,5.036,0,0,1,1.87-3.267,6.28,6.28,0,0,1,3.626-.946,11.214,11.214,0,0,1,2.658.271,8.829,8.829,0,0,1,2.207.833l1.1-5.181A12.891,12.891,0,0,0,62.4.249,16.161,16.161,0,0,0,59.47,0c-3.65,0-6.443.789-8.357,2.365a11.673,11.673,0,0,0-3.852,6.893,11.446,11.446,0,0,0-.248,2.23,6.365,6.365,0,0,0,1.081,3.784,6.481,6.481,0,0,0,3,2.32,11.567,11.567,0,0,0,4.505.812,18.148,18.148,0,0,0,3.063-.248,18.767,18.767,0,0,0,2.681-.676l1.1-5.2a15.669,15.669,0,0,1-2.681.811,13.2,13.2,0,0,1-2.681.271,6.2,6.2,0,0,1-3.018-.563,2.132,2.132,0,0,1-.924-1.982,3.98,3.98,0,0,1,.045-.721c.045-.27.09-.541.135-.833" transform="translate(-21.979 -0.001)" fill="#272727"/>
        <path id="패스_19" data-name="패스 19" d="M98.556.508H91.843L85.987,6.162,87.18.508H81.233L77.471,18.349h5.947l1.013-4.888,1.937-1.8,2.613,6.691H95.29L90.83,7.874Z" transform="translate(-36.219 -0.238)" fill="#272727"/>
        <path id="패스_20" data-name="패스 20" d="M130.844,4.923l.923-4.415H117.891l-3.784,17.841h13.876l.923-4.393h-7.929l.5-2.252h6.915l.924-4.505h-6.894l.5-2.275Z" transform="translate(-53.346 -0.238)" fill="#272727"/>
      </g>
    </g>
  </g>
</svg>
