<svg xmlns="http://www.w3.org/2000/svg" width="169.242" height="53.615" viewBox="0 0 169.242 53.615"><g transform="translate(-360 -2747.233)"><path d="M287.254,51.676a7.7,7.7,0,0,1,1.185,4.665v.926a7.757,7.757,0,0,1-1.185,4.686,4.01,4.01,0,0,1-3.406,1.576H282.06V50.1h1.729a4.077,4.077,0,0,1,3.464,1.571" transform="translate(227.116 2723.627)" fill="#d4d4d4"/><path d="M111.065,41.091l-2.29,7.41h4.591Zm0,0-2.29,7.41h4.591Zm-17.8-1.428a4.165,4.165,0,0,0-2.507-.592H88.238v4.94h2.687a3.8,3.8,0,0,0,2.406-.613,2.214,2.214,0,0,0,.714-1.782,2.3,2.3,0,0,0-.777-1.952m-1.423,7.722H88.238V52.5h3.374a3.216,3.216,0,0,0,2.142-.635,2.244,2.244,0,0,0,.746-1.8,2.368,2.368,0,0,0-2.655-2.687m19.22-6.294-2.29,7.41h4.591Zm0,0-2.29,7.41h4.591Zm-19.22,6.294H88.238V52.5h3.374a3.216,3.216,0,0,0,2.142-.635,2.244,2.244,0,0,0,.746-1.8,2.368,2.368,0,0,0-2.655-2.687m1.423-7.722a4.165,4.165,0,0,0-2.507-.592H88.238v4.94h2.687a3.8,3.8,0,0,0,2.406-.613,2.214,2.214,0,0,0,.714-1.782,2.3,2.3,0,0,0-.777-1.952m0,0a4.165,4.165,0,0,0-2.507-.592H88.238v4.94h2.687a3.8,3.8,0,0,0,2.406-.613,2.214,2.214,0,0,0,.714-1.782,2.3,2.3,0,0,0-.777-1.952m-1.423,7.722H88.238V52.5h3.374a3.216,3.216,0,0,0,2.142-.635,2.244,2.244,0,0,0,.746-1.8,2.368,2.368,0,0,0-2.655-2.687m19.22-6.294-2.29,7.41h4.591Zm0,0-2.29,7.41h4.591Zm-19.22,6.294H88.238V52.5h3.374a3.216,3.216,0,0,0,2.142-.635,2.244,2.244,0,0,0,.746-1.8,2.368,2.368,0,0,0-2.655-2.687M93.331,43.4a2.214,2.214,0,0,0,.714-1.782,2.3,2.3,0,0,0-.777-1.952,4.165,4.165,0,0,0-2.507-.592H88.238v4.94h2.687a3.8,3.8,0,0,0,2.406-.613M156.237,26.7H0V53.186A13.008,13.008,0,0,0,13.01,66.2H156.237a13.007,13.007,0,0,0,13.005-13.01V39.71A13.006,13.006,0,0,0,156.237,26.7M28.771,53.826A8.332,8.332,0,0,1,25.3,55.952a14.978,14.978,0,0,1-5.019.809,8.93,8.93,0,0,1-6.7-2.57,10.365,10.365,0,0,1-2.687-7.145L10.874,45.2a12.678,12.678,0,0,1,1.116-5.506,8.287,8.287,0,0,1,3.189-3.628A9.083,9.083,0,0,1,19.986,34.8a9.461,9.461,0,0,1,6.193,1.825,7.72,7.72,0,0,1,2.576,5.447H23.8a4.065,4.065,0,0,0-1.148-2.549,3.666,3.666,0,0,0-2.491-.767A3.363,3.363,0,0,0,17.167,40.4,8.742,8.742,0,0,0,16.1,45.1v1.29a8.568,8.568,0,0,0,1.089,4.8A3.866,3.866,0,0,0,20.632,52.8a4.339,4.339,0,0,0,2.988-.894V48.59H20.045V45.052h8.727Zm8.478,2.639H32.114V35.109h5.135ZM55.115,39.081H45.976V44h8.3v3.956h-8.3v8.51H40.83V35.109H55.115Zm19.2,0h-6.41V56.465H62.757V39.081H56.463V35.109H74.318ZM97.647,54.857a9.444,9.444,0,0,1-5.886,1.608H83.092V35.109h7.669a10.886,10.886,0,0,1,6.273,1.507,5.031,5.031,0,0,1,2.147,4.39,5.083,5.083,0,0,1-.762,2.83,4.441,4.441,0,0,1-2.242,1.729,4.52,4.52,0,0,1,2.565,1.645,4.78,4.78,0,0,1,.894,2.935,5.641,5.641,0,0,1-1.989,4.712m18.2,1.608L114.6,52.477h-7.055l-1.232,3.988h-5.5l7.833-21.356h4.845l7.891,21.356Zm24.921,0h-5.12l-7.568-13.291V56.465h-5.146V35.109h5.146L135.637,48.4V35.109h5.13Zm20.039-10.223a11.006,11.006,0,0,1-1.238,5.257,9.068,9.068,0,0,1-3.491,3.639,9.889,9.889,0,0,1-5.024,1.327h-7.029V35.109h6.881a10.14,10.14,0,0,1,5.088,1.28,9.045,9.045,0,0,1,3.533,3.628,11,11,0,0,1,1.28,5.241ZM108.775,48.5h4.591l-2.3-7.41ZM91.845,47.384H88.238V52.5h3.374a3.216,3.216,0,0,0,2.142-.635,2.244,2.244,0,0,0,.746-1.8,2.368,2.368,0,0,0-2.655-2.687M93.331,43.4a2.214,2.214,0,0,0,.714-1.782,2.3,2.3,0,0,0-.777-1.952,4.165,4.165,0,0,0-2.507-.592H88.238v4.94h2.687a3.8,3.8,0,0,0,2.406-.613m-.063-3.734a4.165,4.165,0,0,0-2.507-.592H88.238v4.94h2.687a3.8,3.8,0,0,0,2.406-.613,2.214,2.214,0,0,0,.714-1.782,2.3,2.3,0,0,0-.777-1.952m-1.423,7.722H88.238V52.5h3.374a3.216,3.216,0,0,0,2.142-.635,2.244,2.244,0,0,0,.746-1.8,2.368,2.368,0,0,0-2.655-2.687m19.22-6.294-2.29,7.41h4.591Zm0,0-2.29,7.41h4.591Zm-19.22,6.294H88.238V52.5h3.374a3.216,3.216,0,0,0,2.142-.635,2.244,2.244,0,0,0,.746-1.8,2.368,2.368,0,0,0-2.655-2.687m1.423-7.722a4.165,4.165,0,0,0-2.507-.592H88.238v4.94h2.687a3.8,3.8,0,0,0,2.406-.613,2.214,2.214,0,0,0,.714-1.782,2.3,2.3,0,0,0-.777-1.952m0,0a4.165,4.165,0,0,0-2.507-.592H88.238v4.94h2.687a3.8,3.8,0,0,0,2.406-.613,2.214,2.214,0,0,0,.714-1.782,2.3,2.3,0,0,0-.777-1.952m-1.423,7.722H88.238V52.5h3.374a3.216,3.216,0,0,0,2.142-.635,2.244,2.244,0,0,0,.746-1.8,2.368,2.368,0,0,0-2.655-2.687m19.22-6.294-2.29,7.41h4.591Zm0,0-2.29,7.41h4.591Zm-19.22,6.294H88.238V52.5h3.374a3.216,3.216,0,0,0,2.142-.635,2.244,2.244,0,0,0,.746-1.8,2.368,2.368,0,0,0-2.655-2.687m1.423-7.722a4.165,4.165,0,0,0-2.507-.592H88.238v4.94h2.687a3.8,3.8,0,0,0,2.406-.613,2.214,2.214,0,0,0,.714-1.782,2.3,2.3,0,0,0-.777-1.952" transform="translate(360 2734.651)" fill="#d4d4d4"/><path d="M6.072,1.069a7.482,7.482,0,0,1-4.7,7.461L.6,7.373C3.221,6.114,4.357,4.51,4.57,2.239H1.15V1.069Zm3.052,9.188H7.643V0H9.124Z" transform="translate(359.715 2747.233)" fill="#d4d4d4"/><path d="M29.228,9.88H19.94V8.688h9.288Zm-7.172-7H20.665V1.706h7.8V2.875H27.068V5.949h1.359V7.118H20.72V5.949h1.336Zm3.552,0H23.515V5.949h2.093Z" transform="translate(350.606 2746.429)" fill="#d4d4d4"/><path d="M41.822,6.781A27.922,27.922,0,0,0,45.987,6.5l.134,1.17a30.888,30.888,0,0,1-4.878.289h-.891V.867h5.189V2.059h-3.72V3.73h3.3V4.877h-3.3Zm6.526,3.508H46.867V.021h1.481Z" transform="translate(340.989 2747.223)" fill="#d4d4d4"/><path d="M67.972,5.625V6.783H58.739V5.625h3.419V4.378h1.47V5.625ZM65.466,2.674c.011-.245.011-.5.011-.746H59.764V.758h7.172v.969A14.636,14.636,0,0,1,66.646,5.1L65.2,5c.089-.457.155-.858.2-1.247l-5.736.256L59.5,2.8ZM61.279,9.3H67.1v1.18H59.808V7.429h1.47Z" transform="translate(332.327 2746.875)" fill="#d4d4d4"/><path d="M89.391,6.18a3.825,3.825,0,0,1-2.327-2.027,4.031,4.031,0,0,1-2.45,2.227l-.746-1.169a3.3,3.3,0,0,0,2.416-3.185V1.882H84.268V.712h5.513V1.882H87.787v.134A3.157,3.157,0,0,0,90.1,5.033Zm3.341,2.751V10.1H85.738V6.882h1.47V8.931Zm-1.7-6.259V.022H92.5V7.506h-1.47V3.864h-1.6V2.672Z" transform="translate(320.489 2747.222)" fill="#d4d4d4"/><path d="M112.619,5.475V6.633h-3.776V8.382h-1.47V6.633h-4.043V5.475Zm-6.738,3.842h5.713v1.169h-7.183V7.513h1.47Zm5.557-4.655h-6.96V.842h6.96Zm-1.448-2.673h-4.065V3.5h4.065Z" transform="translate(311.319 2746.836)" fill="#d4d4d4"/><path d="M127.932,5.422a3.783,3.783,0,0,1-2.238-1.961,3.926,3.926,0,0,1-2.428,2.205L122.5,4.52a3.308,3.308,0,0,0,2.416-3.252V.477h1.493v.768a3.106,3.106,0,0,0,2.305,3.041Zm1.3.69h1.459v4.043H124V6.113h1.448v.9h3.786Zm0,2.016h-3.786v.857h3.786Zm1.459-5.78v.9h1.314V4.442h-1.314V5.69h-1.47V.021h1.47V1.146h1.314v1.2Z" transform="translate(302.289 2747.223)" fill="#d4d4d4"/></g></svg>