<svg xmlns="http://www.w3.org/2000/svg" xmlns:xlink="http://www.w3.org/1999/xlink" width="84.328" height="35.802" viewBox="0 0 84.328 35.802">
  <defs>
    <clipPath id="clip-path">
      <path id="패스_8" data-name="패스 8" d="M27.377,49.03H29.9a2.088,2.088,0,0,1,1.278.3,1.125,1.125,0,0,1,.376.933,4.139,4.139,0,0,1-.091.812,2.707,2.707,0,0,1-.782,1.5,2.658,2.658,0,0,1-1.8.512H26.5Zm-5.415-5.023L17.872,63.379H24.34l1.113-5.294h.932a1.057,1.057,0,0,1,.722.2,1.156,1.156,0,0,1,.3.616l1.052,4.482H35.2l-1.173-5.173a3.565,3.565,0,0,0-.256-.738,1.827,1.827,0,0,0-.436-.586,8.785,8.785,0,0,0,3.1-2.361,7.663,7.663,0,0,0,1.624-3.444,8.77,8.77,0,0,0,.181-1.715,5.165,5.165,0,0,0-1.519-3.88,5.9,5.9,0,0,0-4.286-1.474Zm19.828,0L37.7,63.379H52.771l.993-4.783h-8.6l.541-2.437h7.49l1.023-4.9H46.724l.542-2.467h8.6l.993-4.782Zm36.217,0-3.85,8.873-.692-8.873H68.2l-.662,3.1L64.711,52.85l.031-8.844H58.425l.421,19.372h5.9l4.693-8.814.751,8.814h5.565l1.4-3.155.192-.434,6.985-15.783ZM4.452,46.263a12.713,12.713,0,0,0-4.181,7.49A11.859,11.859,0,0,0,0,56.189,6.956,6.956,0,0,0,1.173,60.3a7.215,7.215,0,0,0,3.264,2.527,12.82,12.82,0,0,0,4.888.857,19.764,19.764,0,0,0,3.325-.256,18.871,18.871,0,0,0,2.9-.737l1.2-5.655a15.923,15.923,0,0,1-2.9.888,14.713,14.713,0,0,1-2.9.286,6.589,6.589,0,0,1-3.295-.617,2.316,2.316,0,0,1-1.008-2.151,5.478,5.478,0,0,1,.061-.782c.039-.281.089-.582.15-.9a5.369,5.369,0,0,1,2.015-3.534,6.8,6.8,0,0,1,3.941-1.038,12.633,12.633,0,0,1,2.9.286,10.369,10.369,0,0,1,2.392.918l1.2-5.625a12.931,12.931,0,0,0-2.6-.782,16.78,16.78,0,0,0-3.173-.271q-5.957,0-9.085,2.557" transform="translate(0 -43.706)" fill="none"/>
    </clipPath>
    <linearGradient id="linear-gradient" y1="1" x2="0.004" y2="1" gradientUnits="objectBoundingBox">
      <stop offset="0" stop-color="#0de0f7"/>
      <stop offset="1" stop-color="#00abf7"/>
    </linearGradient>
    <clipPath id="clip-path-2">
      <rect id="사각형_3" data-name="사각형 3" width="84.328" height="35.802" fill="none"/>
    </clipPath>
  </defs>
  <g id="그룹_5" data-name="그룹 5" transform="translate(0 0)">
    <path id="패스_7" data-name="패스 7" d="M159.791,3.458h3.41V4.578h-3.41Zm5.572,0h3.419V4.578h-3.419Zm5.573,0h3.419V4.578h-3.419ZM149.766.5l-.624,2.957h3.248l-1.949,9.179h4.06l1.7-8.06H154.21V3.458h3.419V4.578l-1.778,8.06H176.74l1.8-8.06H176.5V3.458h2.3L179.457.5Z" transform="translate(-95.13 -0.319)" fill="#272727"/>
    <g id="그룹_2" data-name="그룹 2" transform="translate(0 15.828)">
      <g id="그룹_1" data-name="그룹 1" transform="translate(0)" clip-path="url(#clip-path)">
        <rect id="사각형_2" data-name="사각형 2" width="84.324" height="19.973" transform="translate(0 0)" fill="url(#linear-gradient)"/>
      </g>
    </g>
    <g id="그룹_4" data-name="그룹 4" transform="translate(0 0)">
      <g id="그룹_3" data-name="그룹 3" transform="translate(0 0)" clip-path="url(#clip-path-2)">
        <path id="패스_9" data-name="패스 9" d="M3.433.508,2.805,3.465H6.053L4.107,12.642h4.06L10.1,3.465h3.263L13.989.508Z" transform="translate(-1.789 -0.324)" fill="#272727"/>
        <path id="패스_10" data-name="패스 10" d="M32.184.508,29.625,12.642h4.06L36.243.508Z" transform="translate(-18.896 -0.324)" fill="#272727"/>
        <path id="패스_11" data-name="패스 11" d="M51.3,6.3a3.425,3.425,0,0,1,1.272-2.222,4.271,4.271,0,0,1,2.466-.643,7.627,7.627,0,0,1,1.808.184,6,6,0,0,1,1.5.566L59.1.659a8.767,8.767,0,0,0-1.624-.49A10.991,10.991,0,0,0,55.485,0,8.757,8.757,0,0,0,49.8,1.61,7.939,7.939,0,0,0,47.181,6.3a7.784,7.784,0,0,0-.168,1.517,4.329,4.329,0,0,0,.735,2.574,4.408,4.408,0,0,0,2.038,1.578,7.867,7.867,0,0,0,3.064.552,12.343,12.343,0,0,0,2.083-.169,12.764,12.764,0,0,0,1.823-.46l.75-3.539a10.657,10.657,0,0,1-1.823.552,8.98,8.98,0,0,1-1.823.184A4.217,4.217,0,0,1,51.808,8.7a1.45,1.45,0,0,1-.628-1.348,2.706,2.706,0,0,1,.031-.49c.031-.184.061-.368.092-.567" transform="translate(-29.987 -0.001)" fill="#272727"/>
        <path id="패스_12" data-name="패스 12" d="M91.812.508H87.246L83.263,4.354,84.075.508H80.03L77.471,12.642h4.045l.689-3.325,1.318-1.226,1.777,4.55h4.29L86.557,5.518Z" transform="translate(-49.415 -0.324)" fill="#272727"/>
        <path id="패스_13" data-name="패스 13" d="M125.49,3.511l.628-3h-9.437l-2.574,12.134h9.437l.628-2.987H118.78l.338-1.532h4.7l.629-3.064H119.76l.337-1.547Z" transform="translate(-72.783 -0.324)" fill="#272727"/>
      </g>
    </g>
  </g>
</svg>
