<svg xmlns="http://www.w3.org/2000/svg" xmlns:xlink="http://www.w3.org/1999/xlink" width="136.285" height="43.175" viewBox="0 0 136.285 43.175"><defs><clipPath id="a"><rect width="136.285" height="43.175" fill="none"/></clipPath></defs><g clip-path="url(#a)"><path d="M286.242,51.37a6.2,6.2,0,0,1,.954,3.756v.745a6.246,6.246,0,0,1-.954,3.773,3.229,3.229,0,0,1-2.743,1.269h-1.44V50.1h1.393a3.283,3.283,0,0,1,2.79,1.265" transform="translate(-161.933 -28.766)" fill="#f47400"/><path d="M89.437,38.289l-1.844,5.967h3.7Zm0,0-1.844,5.967h3.7Zm-14.331-1.15a3.354,3.354,0,0,0-2.019-.477H71.056V40.64h2.164a3.062,3.062,0,0,0,1.938-.494,1.783,1.783,0,0,0,.575-1.435,1.855,1.855,0,0,0-.626-1.572M73.96,43.357h-2.9V47.48h2.717a2.59,2.59,0,0,0,1.725-.511,1.807,1.807,0,0,0,.6-1.448,1.907,1.907,0,0,0-2.138-2.164m15.477-5.068-1.844,5.967h3.7Zm0,0-1.844,5.967h3.7ZM73.96,43.357h-2.9V47.48h2.717a2.59,2.59,0,0,0,1.725-.511,1.807,1.807,0,0,0,.6-1.448,1.907,1.907,0,0,0-2.138-2.164m1.146-6.218a3.354,3.354,0,0,0-2.019-.477H71.056V40.64h2.164a3.062,3.062,0,0,0,1.938-.494,1.783,1.783,0,0,0,.575-1.435,1.855,1.855,0,0,0-.626-1.572m0,0a3.354,3.354,0,0,0-2.019-.477H71.056V40.64h2.164a3.062,3.062,0,0,0,1.938-.494,1.783,1.783,0,0,0,.575-1.435,1.855,1.855,0,0,0-.626-1.572M73.96,43.357h-2.9V47.48h2.717a2.59,2.59,0,0,0,1.725-.511,1.807,1.807,0,0,0,.6-1.448,1.907,1.907,0,0,0-2.138-2.164m15.477-5.068-1.844,5.967h3.7Zm0,0-1.844,5.967h3.7ZM73.96,43.357h-2.9V47.48h2.717a2.59,2.59,0,0,0,1.725-.511,1.807,1.807,0,0,0,.6-1.448,1.907,1.907,0,0,0-2.138-2.164m1.2-3.211a1.783,1.783,0,0,0,.575-1.435,1.855,1.855,0,0,0-.626-1.572,3.354,3.354,0,0,0-2.019-.477H71.056V40.64h2.164a3.062,3.062,0,0,0,1.938-.494M125.813,26.7H0V48.029A10.475,10.475,0,0,0,10.477,58.506H125.813a10.474,10.474,0,0,0,10.473-10.477V37.178A10.473,10.473,0,0,0,125.813,26.7M23.169,48.545a6.709,6.709,0,0,1-2.8,1.712,12.062,12.062,0,0,1-4.042.652,7.191,7.191,0,0,1-5.4-2.07,8.347,8.347,0,0,1-2.164-5.754L8.756,41.6a10.209,10.209,0,0,1,.9-4.434,6.674,6.674,0,0,1,2.568-2.922,7.315,7.315,0,0,1,3.871-1.018,7.619,7.619,0,0,1,4.987,1.469,6.217,6.217,0,0,1,2.074,4.387H19.165a3.274,3.274,0,0,0-.924-2.053,2.952,2.952,0,0,0-2.006-.618,2.708,2.708,0,0,0-2.411,1.325,7.039,7.039,0,0,0-.86,3.782v1.039a6.9,6.9,0,0,0,.877,3.867,3.113,3.113,0,0,0,2.773,1.295A3.494,3.494,0,0,0,19.02,47v-2.67H16.141V41.479h7.027ZM30,50.67H25.86v-17.2H30Zm14.387-14H37.023v3.961h6.687v3.186H37.023V50.67H32.879v-17.2h11.5Zm15.464,0H54.685v14H50.536v-14H45.468v-3.2H59.846Zm18.786,12.7a7.6,7.6,0,0,1-4.74,1.295h-6.98v-17.2h6.175a8.766,8.766,0,0,1,5.051,1.214,4.051,4.051,0,0,1,1.729,3.535,4.093,4.093,0,0,1-.613,2.279,3.576,3.576,0,0,1-1.806,1.393,3.64,3.64,0,0,1,2.066,1.325,3.849,3.849,0,0,1,.72,2.364,4.543,4.543,0,0,1-1.6,3.795M93.287,50.67l-1.005-3.211H86.6l-.992,3.211H81.179l6.307-17.2h3.9l6.354,17.2Zm20.068,0h-4.123l-6.095-10.7v10.7H98.994v-17.2h4.144l6.086,10.7v-10.7h4.131Zm16.137-8.232a8.862,8.862,0,0,1-1,4.233,7.3,7.3,0,0,1-2.811,2.93,7.963,7.963,0,0,1-4.046,1.069h-5.66v-17.2h5.541a8.166,8.166,0,0,1,4.1,1.031,7.283,7.283,0,0,1,2.845,2.922,8.854,8.854,0,0,1,1.031,4.221Zm-41.9,1.819h3.7l-1.853-5.967Zm-13.633-.9h-2.9V47.48h2.717a2.59,2.59,0,0,0,1.725-.511,1.807,1.807,0,0,0,.6-1.448,1.907,1.907,0,0,0-2.138-2.164m1.2-3.211a1.783,1.783,0,0,0,.575-1.435,1.855,1.855,0,0,0-.626-1.572,3.354,3.354,0,0,0-2.019-.477H71.056V40.64h2.164a3.062,3.062,0,0,0,1.938-.494m-.051-3.007a3.354,3.354,0,0,0-2.019-.477H71.056V40.64h2.164a3.062,3.062,0,0,0,1.938-.494,1.783,1.783,0,0,0,.575-1.435,1.855,1.855,0,0,0-.626-1.572M73.96,43.357h-2.9V47.48h2.717a2.59,2.59,0,0,0,1.725-.511,1.807,1.807,0,0,0,.6-1.448,1.907,1.907,0,0,0-2.138-2.164m15.477-5.068-1.844,5.967h3.7Zm0,0-1.844,5.967h3.7ZM73.96,43.357h-2.9V47.48h2.717a2.59,2.59,0,0,0,1.725-.511,1.807,1.807,0,0,0,.6-1.448,1.907,1.907,0,0,0-2.138-2.164m1.146-6.218a3.354,3.354,0,0,0-2.019-.477H71.056V40.64h2.164a3.062,3.062,0,0,0,1.938-.494,1.783,1.783,0,0,0,.575-1.435,1.855,1.855,0,0,0-.626-1.572m0,0a3.354,3.354,0,0,0-2.019-.477H71.056V40.64h2.164a3.062,3.062,0,0,0,1.938-.494,1.783,1.783,0,0,0,.575-1.435,1.855,1.855,0,0,0-.626-1.572M73.96,43.357h-2.9V47.48h2.717a2.59,2.59,0,0,0,1.725-.511,1.807,1.807,0,0,0,.6-1.448,1.907,1.907,0,0,0-2.138-2.164m15.477-5.068-1.844,5.967h3.7Zm0,0-1.844,5.967h3.7ZM73.96,43.357h-2.9V47.48h2.717a2.59,2.59,0,0,0,1.725-.511,1.807,1.807,0,0,0,.6-1.448,1.907,1.907,0,0,0-2.138-2.164m1.146-6.218a3.354,3.354,0,0,0-2.019-.477H71.056V40.64h2.164a3.062,3.062,0,0,0,1.938-.494,1.783,1.783,0,0,0,.575-1.435,1.855,1.855,0,0,0-.626-1.572" transform="translate(0 -15.332)" fill="#f47400"/><path d="M5.007.861A6.025,6.025,0,0,1,1.223,6.87L.6,5.937C2.712,4.923,3.627,3.632,3.8,1.8H1.044V.861Zm2.458,7.4H6.272V0H7.465Z" transform="translate(-0.347)" fill="#f47400"/><path d="M27.42,8.288H19.94v-.96h7.48ZM21.644,2.648H20.523V1.706H26.8v.942H25.68V5.123h1.094v.942H20.568V5.123h1.076Zm2.861,0H22.819V5.123H24.5Z" transform="translate(-11.448 -0.979)" fill="#f47400"/><path d="M41.536,5.465a22.484,22.484,0,0,0,3.354-.224L45,6.182a24.873,24.873,0,0,1-3.928.233h-.717V.7h4.179v.96h-3V3.007H44.19v.924H41.536ZM46.791,8.29H45.6V.021h1.193Z" transform="translate(-23.166 -0.012)" fill="#f47400"/><path d="M66.174,4.677V5.61H58.739V4.677h2.753v-1h1.184v1ZM64.156,2.3c.009-.2.009-.4.009-.6h-4.6V.758h5.775v.78a11.785,11.785,0,0,1-.233,2.718l-1.166-.081c.072-.368.125-.691.161-1l-4.619.206L59.349,2.4ZM60.784,7.637h4.69v.951H59.6V6.13h1.184Z" transform="translate(-33.723 -0.435)" fill="#f47400"/><path d="M88.315,4.981a3.08,3.08,0,0,1-1.874-1.632,3.246,3.246,0,0,1-1.973,1.793l-.6-.942a2.654,2.654,0,0,0,1.946-2.565V1.519H84.19V.578h4.439v.942H87.024v.108a2.542,2.542,0,0,0,1.865,2.43ZM91.006,7.2v.942H85.374V5.546h1.184V7.2Zm-1.372-5.04V.022h1.184V6.048H89.634V3.116H88.342v-.96Z" transform="translate(-48.149 -0.013)" fill="#f47400"/><path d="M110.811,4.573v.933h-3.04V6.914h-1.184V5.506h-3.256V4.573Zm-5.426,3.094h4.6v.942H104.2V6.214h1.184Zm4.475-3.749h-5.6V.842h5.6Zm-1.166-2.152H105.42v1.22h3.273Z" transform="translate(-59.323 -0.483)" fill="#f47400"/><path d="M126.874,4.371a3.046,3.046,0,0,1-1.8-1.579,3.162,3.162,0,0,1-1.955,1.776l-.619-.924a2.664,2.664,0,0,0,1.946-2.618V.389h1.2v.619A2.5,2.5,0,0,0,127.5,3.456Zm1.049.556H129.1V8.182h-5.39V4.926h1.166v.727h3.049Zm0,1.623h-3.049v.69h3.049ZM129.1,1.9v.727h1.058v.959H129.1v1h-1.184V.021H129.1V.927h1.058V1.9Z" transform="translate(-70.327 -0.012)" fill="#f47400"/></g></svg>